# xmcd
#
# Track frame offsets:
#   150
#   14776
#   28472
#   47612
#   68246
#   81893
#   94192
#   113241
#   129371
#   148838
#   163418
#
# Disc length: 2458 seconds
#
# Revision: 0
# Processed by: cddbd v1.5.1PL0 Copyright (c) Steve Scherf et al.
# Submitted via: Precision_Digital_Audio_Extractor 1.60.0
#
DISCID=a209980b
DTITLE=Cross Connection - Be Healed
DYEAR=1900
DGENRE=Southern Gospel
TTITLE0=Way Down Deep
TTITLE1=That's What He Did For Me
TTITLE2=I Know Who Holds Tomorrow
TTITLE3=Be Healed
TTITLE4=Greater Is He
TTITLE5=There Is Hope
TTITLE6=On Time God
TTITLE7=Consolation On Your Knees
TTITLE8=He Didn't Throw The Clay Away
TTITLE9=He Looked Beyond My Faults
TTITLE10=Instrumental Medley
EXTD=
EXTT0=
EXTT1=
EXTT2=
EXTT3=
EXTT4=
EXTT5=
EXTT6=
EXTT7=
EXTT8=
EXTT9=
EXTT10=
PLAYORDER=
